HIERARCHY
ROOT root
{
	OFFSET 0.000000 0.000000 0.000000
	CHANNELS 6 Xposition Yposition Zposition Zrotation Yrotation Xrotation
	JOINT lhip
	{
		OFFSET 0.058581 -0.082280 -0.017664
		CHANNELS 3 Zrotation Yrotation Xrotation
		JOINT lknee
		{
			OFFSET 0.043451 -0.386469 0.008037
			CHANNELS 3 Zrotation Yrotation Xrotation
			JOINT lankle
			{
				OFFSET -0.014790 -0.426874 -0.037428
				CHANNELS 3 Zrotation Yrotation Xrotation
				JOINT ltoe
				{
					OFFSET 0.041054 -0.060286 0.122042
					CHANNELS 3 Zrotation Yrotation Xrotation
					End Site
					{
						OFFSET 0.000000 0.000000 0.000000
					}
				}
			}
		}
	}
	JOINT rhip
	{
		OFFSET -0.060310 -0.090513 -0.013543
		CHANNELS 3 Zrotation Yrotation Xrotation
		JOINT rknee
		{
			OFFSET -0.043257 -0.383688 -0.004843
			CHANNELS 3 Zrotation Yrotation Xrotation
			JOINT rankle
			{
				OFFSET 0.019056 -0.420046 -0.034562
				CHANNELS 3 Zrotation Yrotation Xrotation
				JOINT rtoe
				{
					OFFSET -0.034840 -0.062106 0.130323
					CHANNELS 3 Zrotation Yrotation Xrotation
					End Site
					{
						OFFSET 0.000000 0.000000 0.000000
					}
				}
			}
		}
	}
	JOINT lowerback
	{
		OFFSET 0.004439 0.124404 -0.038385
		CHANNELS 3 Zrotation Yrotation Xrotation
		JOINT upperback
		{
			OFFSET 0.004488 0.137956 0.026820
			CHANNELS 3 Zrotation Yrotation Xrotation
			JOINT chest
			{
				OFFSET -0.002265 0.056032 0.002855
				CHANNELS 3 Zrotation Yrotation Xrotation
				JOINT lowerneck
				{
					OFFSET -0.013390 0.211636 -0.033468
					CHANNELS 3 Zrotation Yrotation Xrotation
					JOINT upperneck
					{
						OFFSET 0.010113 0.088937 0.050410
						CHANNELS 3 Zrotation Yrotation Xrotation
						End Site
						{
							OFFSET 0.000000 0.000000 0.000000
						}
					}
				}
				JOINT lclavicle
				{
					OFFSET 0.071702 0.114000 -0.018898
					CHANNELS 3 Zrotation Yrotation Xrotation
					JOINT lshoulder
					{
						OFFSET 0.122921 0.045205 -0.019046
						CHANNELS 3 Zrotation Yrotation Xrotation
						JOINT lelbow
						{
							OFFSET 0.255332 -0.015649 -0.022946
							CHANNELS 3 Zrotation Yrotation Xrotation
							JOINT lwrist
							{
								OFFSET 0.265709 0.012698 -0.007375
								CHANNELS 3 Zrotation Yrotation Xrotation
								End Site
								{
									OFFSET 0.000000 0.000000 0.000000
								}
							}
						}
					}
				}
				JOINT rclavicle
				{
					OFFSET -0.082954 0.112472 -0.023707
					CHANNELS 3 Zrotation Yrotation Xrotation
					JOINT rshoulder
					{
						OFFSET -0.113228 0.046853 -0.008472
						CHANNELS 3 Zrotation Yrotation Xrotation
						JOINT relbow
						{
							OFFSET -0.260127 -0.014369 -0.031269
							CHANNELS 3 Zrotation Yrotation Xrotation
							JOINT rwrist
							{
								OFFSET -0.269108 0.006794 -0.006027
								CHANNELS 3 Zrotation Yrotation Xrotation
								End Site
								{
									OFFSET 0.000000 0.000000 0.000000
								}
							}
						}
					}
				}
			}
		}
	}
}
MOTION
Frames: 13
Frame Time: 0.033333
0.993328 0.775374 0.982556 -94.667732 1.730862 87.637485 1.064189 -2.854817 3.412085 -3.416063 -6.492000 4.584897 5.212078 7.046747 -18.602200 0.000000 -0.000000 0.000000 1.609313 -3.367397 2.236990 2.007955 -3.828150 10.590816 2.859743 -2.824167 -17.718587 0.000000 -0.000000 0.000000 -2.686471 5.409648 3.535394 2.205997 -0.294740 5.038851 1.362124 1.265167 1.123779 2.082498 15.615700 5.316849 -0.403127 8.003915 6.941405 -23.768099 2.784292 2.969254 -65.687319 -4.512009 11.651133 12.814757 -27.167775 12.797362 -5.469756 -10.512058 -3.916431 26.144757 -3.346121 5.081884 64.146139 2.152008 8.809994 -23.555686 24.695610 -3.585885 6.331843 4.464893 -4.883697 
0.991737 0.775943 0.982515 -94.111174 1.610662 86.870752 0.801326 -3.204816 4.539346 -3.243057 -7.348719 4.197507 4.799280 7.657852 -18.557448 0.000000 -0.000000 0.000000 1.729236 -1.889959 3.868304 2.140192 -4.431495 9.508185 3.381447 -4.158858 -17.642091 0.000000 -0.000000 0.000000 -2.707438 4.997442 4.320602 2.002468 -0.173553 4.734161 1.419976 1.298038 1.705250 2.338929 15.899842 4.967240 -0.590866 7.954435 7.290111 -23.484327 2.673709 2.719173 -65.871987 -4.600149 11.846295 12.799417 -26.910201 12.915439 -5.194432 -10.968995 -3.973953 26.153465 -3.085518 4.735146 64.292375 1.858355 9.189181 -23.749569 24.610230 -3.933664 5.772237 4.583074 -5.016154 
0.992048 0.776611 0.982353 -93.997741 1.616948 86.961179 0.887599 -3.171887 4.333709 -3.278130 -7.383083 4.338863 4.717647 7.551508 -18.586540 0.000000 -0.000000 0.000000 1.789494 -1.824694 3.814603 2.158922 -4.565639 9.450330 3.220570 -4.242462 -17.637187 0.000000 -0.000000 0.000000 -2.689788 5.024755 4.262878 1.962940 -0.079439 4.704889 1.422815 1.309551 1.745261 2.403761 16.027195 5.072303 -0.610524 8.152554 7.287974 -23.538300 2.731594 2.668076 -65.909175 -4.693088 11.861629 13.032883 -26.999036 12.903237 -5.927254 -10.840481 -3.843346 26.194923 -3.097640 4.729779 64.118709 1.845249 9.213826 -23.550729 24.663182 -3.588705 7.168791 4.768710 -5.469999 
0.992144 0.777483 0.982173 -93.702197 1.623206 87.057593 0.972896 -3.204972 4.074034 -3.287617 -7.448328 4.606532 4.725743 7.402804 -18.610674 0.000000 -0.000000 0.000000 1.856083 -1.935487 3.794292 2.170375 -4.660584 9.363605 3.352032 -4.332902 -17.572843 0.000000 -0.000000 0.000000 -2.654841 5.040432 4.265762 1.936112 -0.056022 4.638818 1.468321 1.415177 1.642603 2.179742 16.237551 5.342854 -0.723250 8.689292 7.068923 -23.533133 2.755510 2.694575 -65.998287 -4.732958 11.778778 12.992364 -27.225918 12.920397 -5.903272 -10.793596 -3.852986 26.193707 -3.181710 4.897211 63.930433 1.837511 8.985335 -23.826553 24.992295 -3.436589 7.224455 5.016529 -4.382236 
0.992108 0.777806 0.982097 -93.618762 1.602940 87.036301 0.981798 -3.203894 4.100609 -3.305547 -7.489386 4.593792 4.725589 7.398399 -18.591242 0.000000 -0.000000 0.000000 1.854646 -1.952774 3.865026 2.169415 -4.718523 9.313600 3.328273 -4.349778 -17.574937 0.000000 -0.000000 0.000000 -2.644688 5.065620 4.256890 1.913607 -0.042305 4.694939 1.467052 1.419642 1.596342 2.123982 16.248784 5.423258 -0.740981 8.767287 7.043042 -23.503320 2.595162 2.808215 -66.054786 -4.705786 11.791132 13.148477 -27.258700 12.765095 -5.927438 -10.816889 -4.012102 26.099712 -3.090076 5.048592 64.033173 1.829136 8.963569 -23.827572 25.002554 -3.563771 7.233073 4.984335 -4.803292 
0.992225 0.778303 0.982039 -93.397751 1.550499 86.990280 0.961533 -3.261330 4.119778 -3.301053 -7.619345 4.609051 4.643515 7.344779 -18.552774 0.000000 -0.000000 0.000000 1.836102 -2.006404 3.982862 2.159533 -4.842326 9.235948 3.188827 -4.436934 -17.646379 0.000000 -0.000000 0.000000 -2.650468 5.116680 4.287694 1.879186 -0.034022 4.757865 1.472922 1.483826 1.597221 2.143275 16.246782 5.440757 -0.728086 8.775416 7.221243 -23.391830 2.401735 2.732756 -66.163048 -4.710608 11.943655 13.211513 -27.250033 12.710459 -5.911310 -11.014320 -4.160930 26.049733 -3.012748 5.109707 63.902810 1.895861 8.932298 -23.662104 25.063081 -3.370124 7.515018 5.262784 -4.968475 
0.992183 0.778729 0.982115 -93.180396 1.523373 86.942721 0.972945 -3.246735 4.167941 -3.283181 -7.714712 4.587125 4.600740 7.207943 -18.500483 0.000000 -0.000000 0.000000 1.827814 -2.126173 4.114794 2.194552 -4.878885 9.157303 3.499949 -4.380727 -17.508155 0.000000 -0.000000 0.000000 -2.609712 5.173459 4.413230 1.788025 0.028524 4.717387 1.462655 1.554852 1.585826 2.014180 17.163910 5.084130 -0.614160 9.622116 7.090941 -23.251558 2.424944 2.489032 -66.210296 -4.747446 11.959687 12.970897 -27.291817 13.008928 -5.864118 -11.086699 -4.173926 26.124985 -3.136075 5.001030 63.805404 1.813833 8.896903 -23.717496 25.107736 -3.266709 7.694415 5.388167 -4.691457 
0.992559 0.778898 0.982157 -93.075756 1.421789 87.120021 0.875782 -3.326607 3.894360 -3.259470 -7.644145 4.685486 4.706310 7.098332 -18.441603 0.000000 -0.000000 0.000000 1.653071 -2.579311 3.770921 2.200414 -4.840480 9.393380 3.543432 -4.058104 -17.534320 0.000000 -0.000000 0.000000 -2.540493 5.330768 4.206331 1.699405 0.091761 4.768349 1.365834 1.577363 1.615874 2.053811 17.647846 5.231392 -0.701364 10.097726 6.844629 -23.332517 2.478364 2.314541 -65.962225 -4.762204 12.113204 12.738734 -27.541388 13.070165 -5.371842 -10.899468 -4.246970 25.992151 -3.128299 4.957577 64.138239 1.768845 9.063295 -23.729184 24.715177 -3.837393 6.668187 4.855010 -5.277931 
0.992770 0.778955 0.982192 -92.877391 1.354284 87.153324 0.810065 -3.445505 3.784952 -3.254397 -7.610487 4.756714 4.704089 7.016900 -18.386784 0.000000 -0.000000 0.000000 1.590351 -2.812583 3.664159 2.117812 -4.935749 9.516984 3.146695 -4.102731 -17.755893 0.000000 -0.000000 0.000000 -2.450058 5.387918 4.199487 1.614281 0.148054 4.794205 1.354466 1.651160 1.639014 1.921151 18.511783 5.072085 -0.760082 11.013052 6.828550 -23.373049 2.349259 2.175993 -65.922279 -4.726804 12.166684 12.822539 -27.674830 12.923562 -5.414631 -10.858109 -4.398304 26.034622 -3.094791 5.090209 63.965140 1.928615 9.102708 -23.730584 24.666927 -3.683874 7.173192 4.665004 -5.193297 
0.992826 0.779122 0.982165 -92.580558 1.326395 87.220632 0.808027 -3.590889 3.654375 -3.267560 -7.688711 4.810285 4.650067 6.935998 -18.333741 0.000000 -0.000000 0.000000 1.604245 -2.865796 3.635183 2.137665 -5.028172 9.460632 3.371306 -4.114450 -17.632291 0.000000 -0.000000 0.000000 -2.325604 5.431804 4.155472 1.559943 0.169870 4.816923 1.359928 1.708383 1.665012 1.848130 19.336573 5.343247 -1.018263 12.024826 6.489081 -23.381428 2.165530 2.183205 -65.892720 -4.694166 12.258837 12.850602 -27.840862 12.772848 -4.912677 -10.934486 -4.497072 26.005121 -2.976773 5.230424 63.941642 1.947684 9.122007 -23.757337 24.544546 -4.004186 6.713700 4.640687 -5.217627 
0.992685 0.779272 0.982144 -92.428211 1.256094 87.246957 0.768846 -3.610209 3.709719 -3.281758 -7.817816 4.655367 4.610556 6.897221 -18.251423 0.000000 -0.000000 0.000000 1.537057 -2.928974 3.639289 2.132650 -5.168728 9.435922 3.438439 -4.021891 -17.645109 0.000000 -0.000000 0.000000 -2.274861 5.536600 4.114223 1.488156 0.269656 4.889985 1.413655 1.892018 1.551759 1.579236 20.981394 5.541974 -1.300841 13.552735 5.971415 -23.241313 2.089341 2.163758 -65.982570 -4.640011 12.211964 12.727311 -27.922293 12.906398 -4.908384 -11.071679 -4.579734 25.920295 -3.106349 5.426098 63.871256 2.074483 9.106675 -23.700443 24.564131 -3.707077 6.868118 4.634714 -5.195284 
0.992573 0.779307 0.982148 -92.138356 1.231857 87.239116 0.755751 -3.733503 3.772106 -3.274766 -7.937500 4.540327 4.586189 6.830781 -18.144587 0.000000 -0.000000 0.000000 1.541689 -2.944140 3.722356 2.113843 -5.377124 9.362331 3.136425 -4.216971 -17.838863 0.000000 -0.000000 0.000000 -2.125557 5.598047 4.127630 1.399368 0.440086 4.962374 1.435061 1.987982 1.645849 1.497942 22.700053 5.695245 -1.560387 15.417881 5.637842 -23.089647 2.021608 1.875346 -66.157251 -4.665544 12.281136 12.766392 -27.979703 12.872688 -4.372113 -11.242443 -4.615952 26.019433 -3.229753 5.485290 63.653802 2.251536 9.163203 -23.750885 24.599162 -3.527410 6.725310 5.113274 -4.651911 
0.992577 0.779278 0.982263 -91.782295 1.211084 87.192942 0.715205 -3.847387 3.800670 -3.235032 -8.152755 4.544434 4.530587 6.798353 -18.054984 0.000000 -0.000000 0.000000 1.544674 -2.961500 3.815010 2.126866 -5.574303 9.316523 3.086132 -4.368758 -17.907585 0.000000 -0.000000 0.000000 -1.910392 5.663953 4.244257 1.280393 0.660217 4.971856 1.475208 2.103365 1.704484 1.410949 24.359979 5.832570 -1.902120 17.425055 5.063712 -23.003620 1.961804 1.628904 -66.202132 -4.660170 12.301694 12.646072 -28.176129 13.025598 -4.010051 -11.470805 -4.690946 25.905406 -3.352755 5.488744 63.655859 2.284031 9.199798 -23.643357 24.525986 -3.440777 6.447843 5.313650 -4.336668 
